<svg width="21" height="21" viewBox="0 0 21 21" fill="none" xmlns="http://www.w3.org/2000/svg">
<g clip-path="url(#clip0_5922_1914)">
<path d="M10.4999 4.66667C11.8472 4.66667 13.0843 5.12794 14.0719 5.89505L17.1028 3.00341C15.3406 1.44996 13.0338 0.5 10.4999 0.5C6.66028 0.5 3.33051 2.6666 1.65479 5.84154L5.02515 8.50232C5.84159 6.26614 7.98118 4.66667 10.4999 4.66667Z" fill="#F44336"/>
<path d="M20.4134 11.7516C20.4655 11.3419 20.5 10.924 20.5 10.5001C20.5 9.78521 20.4219 9.0891 20.2794 8.41675H10.5V12.5834H15.9052C15.4679 13.7199 14.6894 14.6815 13.6983 15.3496L17.0812 18.0203C18.8745 16.4463 20.1016 14.242 20.4134 11.7516Z" fill="#2196F3"/>
<path d="M4.66667 10.5C4.66667 9.79714 4.79738 9.12636 5.0252 8.50233L1.65484 5.84155C0.920278 7.23336 0.5 8.81681 0.5 10.5C0.5 12.1644 0.912547 13.7303 1.63185 15.1108L5.00648 12.4466C4.79036 11.837 4.66667 11.1837 4.66667 10.5Z" fill="#FFC107"/>
<path d="M10.5 16.3333C7.96205 16.3333 5.80867 14.7095 5.00647 12.4465L1.63184 15.1107C3.29937 18.3111 6.6415 20.4999 10.5 20.4999C13.0231 20.4999 15.324 19.5626 17.0812 18.0202L13.6983 15.3495C12.7843 15.9657 11.6903 16.3333 10.5 16.3333Z" fill="#00B060"/>
<path opacity="0.1" d="M10.4999 20.2917C7.55686 20.2917 4.91053 19.0774 3.03955 17.1428C4.87106 19.1982 7.53031 20.5001 10.4999 20.5001C13.4421 20.5001 16.0793 19.2239 17.9067 17.2007C16.0413 19.1039 13.415 20.2917 10.4999 20.2917Z" fill="black"/>
<path opacity="0.1" d="M10.5 12.375V12.5833H15.9052L15.9896 12.375H10.5Z" fill="black"/>
<path d="M20.4954 10.6226C20.4961 10.5816 20.5 10.5413 20.5 10.5001C20.5 10.4885 20.4982 10.4772 20.4982 10.4656C20.4976 10.5181 20.495 10.5699 20.4954 10.6226Z" fill="#E6E6E6"/>
<path opacity="0.2" d="M10.5 8.41675V8.62508H20.3213C20.3082 8.55631 20.2939 8.48501 20.2794 8.41675H10.5Z" fill="#FEFEFE"/>
<path d="M20.2794 8.41667H10.5V12.5833H15.9052C15.0646 14.768 12.981 16.3333 10.5 16.3333C7.27836 16.3333 4.66667 13.7216 4.66667 10.5C4.66667 7.27831 7.27836 4.66667 10.5 4.66667C11.6682 4.66667 12.7449 5.02555 13.6571 5.61724C13.7967 5.70798 13.9408 5.79317 14.0719 5.89505L17.1029 3.00341L17.0345 2.95082C15.2808 1.43089 13.0029 0.5 10.5 0.5C4.97713 0.5 0.5 4.97713 0.5 10.5C0.5 16.0228 4.97713 20.5 10.5 20.5C15.5981 20.5 19.7962 16.6823 20.4134 11.7515C20.4655 11.3418 20.5 10.9239 20.5 10.5C20.5 9.78513 20.4219 9.08902 20.2794 8.41667Z" fill="url(#paint0_linear_5922_1914)"/>
<path opacity="0.1" d="M13.6572 5.40892C12.745 4.81723 11.6683 4.45834 10.5001 4.45834C7.27844 4.45834 4.66675 7.06999 4.66675 10.2917C4.66675 10.3268 4.66722 10.3543 4.66783 10.3893C4.72403 7.21627 7.31359 4.66668 10.5001 4.66668C11.6683 4.66668 12.745 5.02556 13.6572 5.61725C13.7968 5.70799 13.9408 5.79318 14.072 5.89506L17.103 3.00342L14.072 5.68673C13.9408 5.58485 13.7968 5.49965 13.6572 5.40892Z" fill="black"/>
<path opacity="0.2" d="M10.5 0.708333C12.9792 0.708333 15.2358 1.62366 16.9827 3.118L17.1029 3.00341L17.0112 2.92356C15.2575 1.40363 13.0029 0.5 10.5 0.5C4.97713 0.5 0.5 4.97713 0.5 10.5C0.5 10.5351 0.504883 10.5691 0.505239 10.6042C0.561696 5.12987 5.01228 0.708333 10.5 0.708333Z" fill="#FEFEFE"/>
</g>
<defs>
<linearGradient id="paint0_linear_5922_1914" x1="0.5" y1="10.5" x2="20.5" y2="10.5" gradientUnits="userSpaceOnUse">
<stop stop-color="white" stop-opacity="0.2"/>
<stop offset="1" stop-color="white" stop-opacity="0"/>
</linearGradient>
<clipPath id="clip0_5922_1914">
<rect width="20" height="20" fill="white" transform="translate(0.5 0.5)"/>
</clipPath>
</defs>
</svg>
